<?xml version="1.0" encoding="UTF-8"?>
<svg xmlns="http://www.w3.org/2000/svg" version="1.1" viewBox="0 0 200 200">
  <defs>
    <style>
      .cls-1 {
        fill: #fff;
      }
    </style>
  </defs>
  <!-- Generator: Adobe Illustrator 28.7.1, SVG Export Plug-In . SVG Version: 1.2.0 Build 142)  -->
  <g>
    <g id="Layer_1">
      <path class="cls-1" d="M117.92,126.71c-7.07,0-12.81-11.96-12.81-26.72s5.73-26.71,12.81-26.71,12.81,11.96,12.81,26.71-5.73,26.72-12.81,26.72M117.92,71.43c-12.19,0-22.08,12.79-22.08,28.57s9.89,28.57,22.08,28.57,22.08-12.79,22.08-28.57-9.89-28.57-22.08-28.57M80.02,111.48v13.81c0,1.28-.73,2.38-1.8,2.92v.35h12.87v-.35c-1.07-.54-1.8-1.65-1.8-2.92v-7.27c0-3.62,2.93-6.55,6.55-6.55v-1.96h-6.55v-9.51h-1.96c0,7.23-2.93,9.51-6.55,9.51h-10.53l19.04-38.09h-9.27l-20.02,40.05h20.02Z"/>
    </g>
  </g>
</svg>