<?xml version="1.0" encoding="UTF-8"?>
<svg xmlns="http://www.w3.org/2000/svg" version="1.1" viewBox="0 0 200 200">
  <defs>
    <style>
      .cls-1 {
        fill: #fff;
      }
    </style>
  </defs>
  <!-- Generator: Adobe Illustrator 28.7.1, SVG Export Plug-In . SVG Version: 1.2.0 Build 142)  -->
  <g>
    <g id="Layer_1">
      <path class="cls-1" d="M122.74,106.92c2.4-3.99,3.78-8.66,3.78-13.64,0-14.62-11.9-26.52-26.52-26.52s-26.52,11.9-26.52,26.52c0,.26,0,.52.01.78,0,.21.02.43.03.64,0,.1.01.21.02.31.01.18.02.36.04.53.02.2.04.4.06.6.05.47.11.94.19,1.4.03.2.06.4.1.6.12.65.26,1.28.42,1.91.04.16.09.32.14.49.05.18.1.35.16.53.05.17.11.35.17.52.04.13.08.25.13.38.08.22.15.43.23.65.16.43.33.86.52,1.27.09.21.19.42.28.63.1.2.19.41.3.62.1.2.2.39.3.59.22.41.45.81.68,1.2,0,0,0,.01,0,.02.09.16.19.31.29.46.07.12.15.23.22.35.19.29.39.58.59.87.07.11.15.21.23.32.25.35.52.7.8,1.04.08.11.17.21.25.31.22.27.46.53.69.79.45.49.91.97,1.4,1.43.15.14.29.28.45.41.09.08.17.15.25.23.14.13.29.25.43.38.16.13.32.27.48.4.23.19.47.37.71.55.11.08.22.17.34.25.38.28.77.54,1.16.8.13.09.26.17.39.25.27.17.53.32.8.48.13.08.27.15.4.23.14.08.28.15.41.23.19.1.38.2.57.3.19.1.39.19.58.28.29.13.57.27.86.39.18.08.36.15.53.22.13.05.25.1.38.15.27.11.54.21.81.3,0,0,0,0,0,0,.27.1.55.19.82.27.21.07.42.13.63.19.17.05.34.1.51.14.1.03.2.05.3.08.18.05.36.09.54.13.03,0,.06.02.08.02.16.04.32.07.48.1.17.04.34.07.51.1.01,0,.03,0,.04,0,.19.04.38.07.57.1.1.02.2.03.3.05.22.03.43.06.65.09.22.03.44.05.65.07.86.08,1.73.13,2.61.13,5.32,0,10.29-1.58,14.45-4.29.33.56.64,1.12.95,1.69-4.44,2.87-9.73,4.53-15.4,4.53-.21,0-.41,0-.62,0-.09,0-.18,0-.27,0-.19,0-.38-.01-.57-.02-.17,0-.34-.02-.51-.03-.05,0-.09,0-.14,0-.11,0-.21-.02-.32-.03-.34-.03-.68-.06-1.02-.11-.07,0-.14-.02-.21-.03-.36-.05-.72-.1-1.08-.16-.15-.02-.3-.05-.45-.08-.28-.05-.56-.11-.83-.17-.03,0-.06-.01-.09-.02-.22-.04-.43-.09-.64-.15-.38-.09-.75-.19-1.12-.3-.25-.07-.51-.15-.76-.23-.16-.05-.32-.1-.48-.16-.16-.05-.32-.11-.48-.17-.16-.05-.32-.12-.47-.17-.16-.06-.31-.12-.47-.18-.31-.12-.62-.25-.92-.39-.14-.06-.27-.12-.4-.18-.05-.02-.09-.04-.13-.06-.21-.1-.42-.2-.64-.31-.21-.11-.42-.21-.63-.32-.15-.08-.29-.16-.44-.23-.29-.16-.58-.33-.86-.5-.19-.11-.38-.22-.56-.34-.09-.06-.19-.12-.28-.18-.24-.15-.47-.31-.7-.47-.23-.16-.46-.32-.68-.49-.23-.17-.45-.34-.67-.51-.21-.16-.42-.33-.63-.5-.4-.33-.79-.67-1.17-1.02-.02-.02-.05-.04-.07-.06-.22-.21-.44-.42-.66-.63-.21-.2-.4-.4-.6-.61-.03-.04-.07-.07-.1-.11h0s-.03-.03-.03-.03c-.14-.15-.28-.3-.41-.45-.07-.08-.15-.16-.22-.24-.07-.08-.14-.16-.21-.24-.29-.33-.56-.66-.82-1-.27-.34-.53-.68-.78-1.04-.25-.35-.5-.71-.73-1.07-.08-.12-.16-.25-.24-.37,0,0-.01-.02-.02-.02-.12-.19-.23-.37-.34-.56-.08-.13-.16-.26-.23-.39-.11-.18-.21-.36-.3-.54-.12-.22-.24-.45-.35-.67-.08-.15-.15-.29-.22-.44-.1-.19-.19-.39-.28-.59-.08-.17-.15-.34-.23-.51-.14-.3-.26-.61-.38-.92-.08-.22-.17-.43-.25-.65-.08-.22-.16-.44-.23-.66-.08-.22-.15-.44-.22-.66-.34-1.1-.62-2.23-.83-3.39-.02-.09-.04-.19-.05-.28-.1-.59-.18-1.18-.24-1.79-.02-.12-.03-.24-.04-.35-.02-.15-.03-.3-.04-.46-.02-.24-.03-.48-.05-.72,0-.13-.02-.25-.02-.38,0-.06,0-.13,0-.19,0-.09,0-.17,0-.26,0-.21,0-.42,0-.63,0-15.69,12.77-28.45,28.45-28.45s28.46,12.77,28.46,28.45c0,5.69-1.68,10.99-4.56,15.44-.38-.61-.76-1.21-1.16-1.8M102.9,88.27l-2.9-1.68-2.9,1.68c-6.49,3.76-12.12,8.65-16.68,14.35-1.35-2.82-2.11-5.99-2.11-9.32,0-11.96,9.73-21.69,21.69-21.69s21.69,9.73,21.69,21.69c0,3.34-.76,6.49-2.11,9.32-4.56-5.69-10.18-10.59-16.68-14.34M100,100.13c4.59,3.12,8.56,6.97,11.78,11.36-3.4,2.21-7.44,3.49-11.78,3.49s-8.39-1.28-11.78-3.49c3.22-4.38,7.19-8.24,11.78-11.36M133.29,93.29c0-18.36-14.94-33.29-33.29-33.29s-33.29,14.93-33.29,33.29c0,7.56,2.53,14.54,6.8,20.13-4.05,8.14-6.28,17.22-6.28,26.58h4.83c0-7.94,1.74-15.65,4.93-22.68.49.47.99.92,1.51,1.36-2.92,6.62-4.5,13.87-4.5,21.32h4.83c0-6.41,1.29-12.65,3.68-18.4,5.09,3.15,11.08,4.98,17.49,4.98s12.41-1.82,17.49-4.98c2.39,5.75,3.68,12,3.68,18.4h4.83c0-7.45-1.59-14.69-4.51-21.32-.67-1.53-1.42-3.01-2.23-4.47-.32-.58-.65-1.15-1-1.71-.85-1.4-1.77-2.76-2.74-4.08-4.14-5.58-9.38-10.37-15.52-14.01-6.14,3.64-11.38,8.43-15.52,14.01-.46-.47-.9-.97-1.31-1.48,4.37-5.79,9.89-10.76,16.35-14.49l.48-.28.48.28c6.46,3.73,11.99,8.7,16.35,14.49,1.01,1.33,1.95,2.71,2.83,4.12.36.57.7,1.15,1.03,1.73.84,1.47,1.61,2.98,2.31,4.52,3.19,7.02,4.93,14.75,4.93,22.68h4.83c0-9.36-2.22-18.44-6.27-26.58,4.26-5.59,6.8-12.57,6.8-20.13"/>
    </g>
  </g>
</svg>