<?xml version="1.0" encoding="UTF-8"?>
<svg xmlns="http://www.w3.org/2000/svg" version="1.1" viewBox="0 0 200 200">
  <defs>
    <style>
      .cls-1 {
        fill: #fff;
      }
    </style>
  </defs>
  <!-- Generator: Adobe Illustrator 28.7.1, SVG Export Plug-In . SVG Version: 1.2.0 Build 142)  -->
  <g>
    <g id="Layer_1">
      <g>
        <path class="cls-1" d="M103.81,140c-.81,0-1.54-.55-1.75-1.37l-2.06-8.16-2.06,8.16c-.24.97-1.23,1.55-2.2,1.31-.97-.24-1.56-1.23-1.31-2.2l3.36-13.32s.01-.04.01-.05c.28-.99,1.16-1.65,2.19-1.65s1.91.66,2.19,1.65c0,.02.01.04.01.05l3.36,13.32c.24.97-.34,1.95-1.31,2.2-.15.04-.3.06-.44.06"/>
        <path class="cls-1" d="M100,77.27c-1.03,0-1.91-.66-2.19-1.65,0-.02-.01-.04-.01-.06l-3.36-13.32c-.24-.97.34-1.95,1.31-2.2.97-.24,1.95.34,2.2,1.31l2.06,8.16,2.06-8.16c.24-.97,1.23-1.55,2.2-1.31.97.24,1.56,1.23,1.31,2.2l-3.36,13.32s-.01.04-.02.06c-.28.99-1.16,1.65-2.19,1.65"/>
        <path class="cls-1" d="M131.17,124.21c-.45,0-.91-.17-1.26-.51l-9.85-9.57s-.03-.03-.04-.04c-.71-.74-.85-1.83-.33-2.72.51-.89,1.53-1.32,2.52-1.07.02,0,.04.01.05.01l13.22,3.75c.96.27,1.52,1.27,1.25,2.23-.27.96-1.27,1.52-2.23,1.25l-8.09-2.29,6.03,5.86c.72.7.73,1.84.04,2.56-.36.37-.83.55-1.3.55"/>
        <path class="cls-1" d="M78.36,89.78c-.19,0-.37-.02-.56-.07-.02,0-.04,0-.06-.01l-13.22-3.75c-.96-.27-1.52-1.27-1.25-2.23.27-.96,1.27-1.52,2.23-1.25l8.09,2.29-6.03-5.86c-.72-.7-.73-1.84-.04-2.56.7-.72,1.84-.73,2.56-.04l9.85,9.57s.03.03.04.04c.71.74.85,1.83.34,2.72-.42.72-1.16,1.14-1.96,1.14"/>
        <path class="cls-1" d="M121.64,89.78c-.8,0-1.54-.42-1.96-1.14-.51-.89-.38-1.98.34-2.72.01-.01.03-.03.04-.04l9.85-9.57c.72-.7,1.86-.68,2.56.04.7.72.68,1.86-.04,2.56l-6.03,5.86,8.09-2.29c.96-.27,1.96.29,2.23,1.25.27.96-.29,1.96-1.25,2.23l-13.22,3.75s-.04.01-.06.01c-.19.05-.38.07-.56.07"/>
        <path class="cls-1" d="M68.83,124.21c-.47,0-.94-.18-1.3-.55-.7-.72-.68-1.86.04-2.56l6.03-5.86-8.09,2.29c-.96.27-1.96-.29-2.23-1.25-.27-.96.29-1.96,1.25-2.23l13.22-3.75s.04-.01.05-.01c.99-.25,2.01.18,2.52,1.07.51.89.38,1.98-.33,2.72-.01.01-.03.03-.04.04l-9.85,9.57c-.35.34-.81.51-1.26.51"/>
        <path class="cls-1" d="M82.15,105.62c-.15,0-.3-.02-.44-.06l-13.32-3.36s-.04-.01-.05-.01c-.99-.28-1.65-1.16-1.65-2.19s.66-1.91,1.65-2.19c.02,0,.04-.01.05-.01l13.32-3.36c.97-.24,1.95.34,2.2,1.31.24.97-.34,1.95-1.31,2.2l-8.16,2.06,8.16,2.06c.97.24,1.56,1.23,1.31,2.2-.21.82-.94,1.37-1.75,1.37"/>
        <path class="cls-1" d="M117.85,105.62c-.81,0-1.54-.55-1.75-1.37-.24-.97.34-1.95,1.31-2.2l8.16-2.06-8.16-2.06c-.97-.24-1.56-1.23-1.31-2.2.24-.97,1.23-1.55,2.2-1.31l13.32,3.36s.04,0,.05.01c.99.28,1.65,1.16,1.65,2.19s-.66,1.91-1.65,2.19c-.02,0-.04.01-.05.01l-13.32,3.36c-.15.04-.3.06-.44.06"/>
        <path class="cls-1" d="M84.48,129.16c-.39,0-.78-.1-1.14-.31-.89-.51-1.32-1.53-1.07-2.52,0-.02,0-.04.01-.05l3.75-13.22c.27-.96,1.27-1.52,2.23-1.25.96.27,1.52,1.27,1.25,2.23l-2.29,8.09,5.86-6.03c.7-.72,1.84-.73,2.56-.04.72.7.73,1.84.04,2.56l-9.57,9.85s-.03.03-.04.04c-.44.42-1,.64-1.58.64"/>
        <path class="cls-1" d="M112.23,88.26c-.16,0-.33-.02-.49-.07-.96-.27-1.52-1.27-1.25-2.23l2.29-8.09-5.86,6.03c-.7.72-1.84.73-2.56.04-.72-.7-.73-1.84-.04-2.56l9.57-9.85s.03-.03.04-.04c.74-.71,1.83-.85,2.72-.33.89.51,1.32,1.53,1.07,2.52,0,.02-.01.04-.02.05l-3.75,13.22c-.23.8-.95,1.32-1.74,1.32"/>
        <path class="cls-1" d="M115.52,129.16c-.57,0-1.14-.22-1.58-.64-.01-.01-.03-.03-.04-.04l-9.57-9.85c-.7-.72-.68-1.86.04-2.56.72-.7,1.86-.68,2.56.04l5.86,6.03-2.29-8.09c-.27-.96.29-1.96,1.25-2.23.96-.27,1.96.29,2.23,1.25l3.75,13.22s0,.03.01.05c.25,1-.18,2.01-1.07,2.52-.36.21-.75.31-1.14.31"/>
        <path class="cls-1" d="M87.77,88.26c-.79,0-1.51-.52-1.74-1.32l-3.75-13.22s-.01-.04-.01-.05c-.25-1,.18-2.01,1.07-2.52.89-.51,1.98-.38,2.72.33.01.01.03.03.04.04l9.57,9.85c.7.72.68,1.86-.04,2.56s-1.86.68-2.56-.04l-5.86-6.03,2.29,8.09c.27.96-.29,1.96-1.25,2.23-.16.05-.33.07-.49.07"/>
      </g>
    </g>
  </g>
</svg>