<?xml version="1.0" encoding="UTF-8"?>
<svg xmlns="http://www.w3.org/2000/svg" version="1.1" viewBox="0 0 200 200">
  <defs>
    <style>
      .cls-1 {
        fill: #fff;
      }
    </style>
  </defs>
  <!-- Generator: Adobe Illustrator 28.7.1, SVG Export Plug-In . SVG Version: 1.2.0 Build 142)  -->
  <g>
    <g id="Layer_1">
      <g>
        <path class="cls-1" d="M82.29,95.99c-9.82-3.12-16.21-6.94-16.21-12.7,0-5.22,4.99-9.27,11.77-9.27s13.72,5.22,18.78,11.3h.31v-8.96c-4.52-2.41-10.99-5.22-18.39-5.22-11.77,0-18.55,6.94-18.55,14.81,0,6.94,5.53,12.55,17.22,16.21,9.04,2.88,15.2,6.39,15.2,13.33,0,6.39-5.22,10.52-12.39,10.52-8.57,0-14.42-6.39-19.56-12.62h-.31v9.66c6.08,3.12,12.55,5.84,19.72,5.84,10.05,0,18.7-4.99,18.7-15.66,0-8.18-5.38-13.48-16.29-17.22"/>
        <path class="cls-1" d="M140,88.41h-.23c-2.27.28-5.81.64-9.66.64l-7.28.02-.02-7.28c0-3.85.4-7.4.67-9.66v-.23h-3.91s0,.23,0,.23c.28,2.26.64,5.81.64,9.66l.02,7.28-7.28.02c-3.85,0-7.4-.4-9.66-.67h-.23s0,3.91,0,3.91h.23c2.27-.28,5.81-.64,9.66-.64l7.28-.02.02,7.28c0,3.85-.39,7.4-.67,9.66v.23h3.91v-.23c-.28-2.26-.64-5.81-.64-9.66l-.02-7.28,7.28-.02c3.85,0,7.4.4,9.67.67h.23v-3.91Z"/>
      </g>
    </g>
  </g>
</svg>