<?xml version="1.0" encoding="UTF-8"?>
<svg xmlns="http://www.w3.org/2000/svg" version="1.1" viewBox="0 0 200 200">
  <defs>
    <style>
      .cls-1 {
        fill: #fff;
      }
    </style>
  </defs>
  <!-- Generator: Adobe Illustrator 28.7.1, SVG Export Plug-In . SVG Version: 1.2.0 Build 142)  -->
  <g>
    <g id="Layer_1">
      <path class="cls-1" d="M100,141c-4.82,0-9.52-.82-13.98-2.45-.27-.1-.49-.31-.59-.58-1.86-4.76-2.8-9.77-2.8-14.9,0-9.1,2.92-17.71,8.44-24.9,1.51-1.98,3.21-3.82,5.05-5.48,2.69-2.45,5.67-4.52,8.9-6.16-5.94-.19-11.68.94-17,3.32-7.26,3.21-13.31,8.5-17.48,15.29-2.53,4.12-4.25,8.61-5.11,13.36-.08.42-.41.75-.84.81-.42.06-.84-.15-1.04-.53-1.23-2.39-2.21-4.87-2.93-7.36-.69-2.33-1.16-4.79-1.42-7.28-.14-1.4-.21-2.79-.21-4.15,0-22.61,18.39-41,41-41,17.03,0,32.03,10.25,38.2,26.1,1.86,4.74,2.8,9.75,2.8,14.9,0,2.46-.22,4.94-.67,7.37-1.42,7.87-5.12,15.12-10.68,20.95-.25.26-.61.36-.96.28-.35-.09-.62-.35-.72-.69-2.87-9.92-9.76-18.41-18.77-23.36.73,1.12,1.41,2.29,2.04,3.5,3.02,5.85,4.55,12.18,4.55,18.8,0,3.79-.52,7.54-1.54,11.15-.09.31-.32.56-.63.67-4.37,1.55-8.95,2.34-13.63,2.34ZM87.13,136.83c4.11,1.44,8.44,2.17,12.87,2.17s8.46-.69,12.47-2.05c.88-3.27,1.32-6.67,1.32-10.1,0-6.3-1.46-12.31-4.33-17.88-1.2-2.3-2.6-4.46-4.18-6.42-.29-.36-.29-.86-.02-1.23s.76-.5,1.19-.32c10.89,4.59,19.16,13.53,22.9,24.67,4.65-5.31,7.75-11.73,9-18.66.42-2.31.63-4.67.63-7.01,0-4.89-.89-9.66-2.66-14.17-5.88-15.08-20.14-24.83-36.34-24.83-21.5,0-39,17.5-39,39,0,1.29.07,2.62.2,3.95.24,2.37.69,4.7,1.34,6.92.42,1.47.94,2.93,1.55,4.37,1.01-3.92,2.6-7.66,4.73-11.14,4.38-7.14,10.74-12.69,18.37-16.07,5.21-2.33,10.8-3.51,16.59-3.51,1.72,0,3.51.11,5.31.34.45.06.81.41.87.87.06.45-.2.89-.62,1.06-4.39,1.73-8.38,4.22-11.88,7.4-1.75,1.58-3.37,3.33-4.8,5.21-5.25,6.83-8.02,15.02-8.02,23.68,0,4.73.84,9.35,2.5,13.75Z"/>
    </g>
  </g>
</svg>